<?xml version="1.0" encoding="utf-8"?>
<!-- Generator: Adobe Illustrator 23.0.6, SVG Export Plug-In . SVG Version: 6.00 Build 0)  -->
<svg version="1.1"
	 id="svg3209" inkscape:version="0.48.2 r9819" sodipodi:docname="blinky.svg" xmlns:cc="http://creativecommons.org/ns#" xmlns:dc="http://purl.org/dc/elements/1.1/" xmlns:inkscape="http://www.inkscape.org/namespaces/inkscape" xmlns:rdf="http://www.w3.org/1999/02/22-rdf-syntax-ns#" xmlns:sodipodi="http://sodipodi.sourceforge.net/DTD/sodipodi-0.dtd" xmlns:svg="http://www.w3.org/2000/svg"
	 xmlns="http://www.w3.org/2000/svg" xmlns:xlink="http://www.w3.org/1999/xlink" x="0px" y="0px" viewBox="0 0 60 60"
	 style="enable-background:new 0 0 60 60;" xml:space="preserve">
<style type="text/css">
	.st0{fill:#E2107D;}
	.st1{fill:#E4127E;}
	.st2{fill:#01A8E8;}
	.st3{fill:#FCF8F8;}
	.st4{fill:#0D0D0D;}
	.st5{fill:#EE7F2E;}
</style>
<title  id="title3238">blinky</title>
<sodipodi:namedview  bordercolor="#666666" borderopacity="1.0" fit-margin-bottom="0" fit-margin-left="0" fit-margin-right="0" fit-margin-top="0" id="base" inkscape:current-layer="layer1" inkscape:cx="56.727193" inkscape:cy="-15.981831" inkscape:document-units="px" inkscape:pageopacity="0.0" inkscape:pageshadow="2" inkscape:window-height="838" inkscape:window-maximized="1" inkscape:window-width="1600" inkscape:window-x="-8" inkscape:window-y="-8" inkscape:zoom="2.990248" pagecolor="#ffffff" showgrid="false">
	</sodipodi:namedview>
<path class="st0" d="M46.3,10.2c2.9,1.6,4.6,4,5.5,7.2c0.8,2.5,0.7,5,0.8,7.5c0.1,5.4,0,10.9,0,16.3c0,3.4,0.1,7,0.1,10.4
	c0,1.7-0.1,3.5-0.2,5.3c-0.1,1.1-0.8,2-1.7,2.2c-0.8,0.2-1.2-0.4-1.7-0.8c-0.8-0.8-1.3-1.6-2-2.3c-0.6-0.6-1.1-1.2-1.8-1.7
	c-0.9-0.7-1.8-0.6-2.7,0.4c-1.1,1.1-2.2,2.4-3.2,3.5c-1.3,1.4-2.9,1.3-4.2,0.1c-0.8-0.8-1.3-1.7-2.1-2.5c-0.6-0.7-1.3-1.3-2.1-1.6
	c-1-0.5-2.5,0.1-3.2,1.1s-1.4,1.9-2.2,2.9c-0.2,0.3-0.4,0.5-0.7,0.7c-1.1,0.9-2.3,0.9-3.2-0.2c-0.9-1-1.7-2-2.6-3
	c-0.4-0.5-0.8-1-1.2-1.2c-0.9-0.6-2-0.4-2.9,0.4c-1.2,1.1-2.4,2.5-3.6,3.6c-0.6,0.6-1.1,1.1-2.1,0.9c-0.9-0.3-1.3-1-1.5-1.8
	s-0.3-1.5-0.3-2.3C7.3,51.1,7.3,47.1,7.3,43c0-6.3,0-12.7,0.1-19c0-1.9,0.2-3.9,0.6-5.8c0.9-4,3.6-7.4,7.8-8.9
	c0.1,0.4-0.7,1.2-0.5,1.5c0.5,0.9,1.1,1.7,1.6,2.6c-1.8,0.7-3.3,1.8-4.3,3.6c-1,1.7-1.1,3.6-1.1,5.5c-0.1,4.9-0.1,9.7-0.1,14.7
	c0,1.7,0.1,3.5,0.3,5.3c0.7,4.5,3.7,6.8,7.8,7.1c3.4,0.2,7,0.3,10.5,0.2c3.7,0,7.5-0.1,11.3-0.4c2.8-0.3,5-1.8,6.2-4.4
	c0.8-1.6,1-3.3,1-5.1c0.1-4.2,0.1-8.4,0.1-12.6c0-2.5-0.1-5-0.4-7.4c-0.3-2.7-1.6-4.8-4.2-6C45.1,12.6,46,11.5,46.3,10.2z"/>
<path class="st1" d="M33.9,8.2c0.1,0.6,0.1,1,0.3,1.5c0.3,0.9,0.8,1.6,1.1,2.5c-0.2,0-0.5,0.1-0.7,0.1c-1.8,0-3.6,0-5.4,0
	c-1.1,0-2,0-3.1,0c1-1.1,1.4-2.6,1.2-4.1C29.5,8.2,31.7,8.2,33.9,8.2z"/>
<path class="st2" d="M30.6,42.6C24.4,43,19,38.3,18.3,32.3c-0.8-7,4.4-12.3,10.2-13c7.2-0.8,12.3,4.6,13,10.2
	C42.3,36.6,37,42.4,30.6,42.6z M29.9,38.5c4.1,0,7.5-3.4,7.6-7.5c0-4-3.4-7.5-7.4-7.6c-4.1,0-7.6,3.3-7.7,7.4
	C22.4,35,25.7,38.5,29.9,38.5z"/>
<circle class="st3" cx="22" cy="12.1" r="7.1"/>
<circle class="st4" cx="24.3" cy="12.1" r="3.1"/>
<circle class="st3" cx="39.4" cy="12.1" r="7.1"/>
<circle class="st4" cx="41.7" cy="12.1" r="3.1"/>
<path class="st5" d="M42,21.5c-1.5,0-2.7-1.1-2.7-2.8c0-1.5,1.2-2.7,2.8-2.7s2.7,1.2,2.6,2.8C44.8,20.4,43.7,21.6,42,21.5z"/>
</svg>
