<?xml version="1.0" encoding="utf-8"?>
<!-- Generator: Adobe Illustrator 23.0.6, SVG Export Plug-In . SVG Version: 6.00 Build 0)  -->
<svg version="1.1"
	 id="svg3209" inkscape:version="0.48.2 r9819" sodipodi:docname="blinky.svg" xmlns:cc="http://creativecommons.org/ns#" xmlns:dc="http://purl.org/dc/elements/1.1/" xmlns:inkscape="http://www.inkscape.org/namespaces/inkscape" xmlns:rdf="http://www.w3.org/1999/02/22-rdf-syntax-ns#" xmlns:sodipodi="http://sodipodi.sourceforge.net/DTD/sodipodi-0.dtd" xmlns:svg="http://www.w3.org/2000/svg"
	 xmlns="http://www.w3.org/2000/svg" xmlns:xlink="http://www.w3.org/1999/xlink" x="0px" y="0px" viewBox="0 0 60 60"
	 style="enable-background:new 0 0 60 60;" xml:space="preserve">
<style type="text/css">
	.st0{fill:#FF004F;}
	.st1{fill:#00F2EA;}
	.st2{fill:#FFFFFF;}
	.st3{fill:#FCF8F8;}
	.st4{fill:#0D0D0D;}
</style>
<title  id="title3238">blinky</title>
<sodipodi:namedview  bordercolor="#666666" borderopacity="1.0" fit-margin-bottom="0" fit-margin-left="0" fit-margin-right="0" fit-margin-top="0" id="base" inkscape:current-layer="layer1" inkscape:cx="56.727193" inkscape:cy="-15.981831" inkscape:document-units="px" inkscape:pageopacity="0.0" inkscape:pageshadow="2" inkscape:window-height="838" inkscape:window-maximized="1" inkscape:window-width="1600" inkscape:window-x="-8" inkscape:window-y="-8" inkscape:zoom="2.990248" pagecolor="#ffffff" showgrid="false">
	</sodipodi:namedview>
<path class="st0" d="M33.8,9.5c0-0.9,0-1.8,0-2.7c2.5,0,4.9,0,7.2,0c0.2,0,0.4,0.3,0.5,0.5c0.4,1.3,0.8,2.8,1.2,4.1
	c-0.1,0.3-0.2,0.6-0.3,0.8c-1.1,2.2,0.4,5.3,2.7,5.9c1.3,0.4,2.6,0.1,3.8-0.4c1.4,0.7,2.9,1.2,4.5,1.3c0.6,0.1,0.9,0.2,0.9,1
	c0,2.5,0,4.9,0,7.4c0,0.6-0.3,0.7-0.8,0.7c-4.9,0.1-8.8-1.8-11.7-5.5c-0.1-0.1-0.2-0.3-0.5-0.6c0,0.5,0,0.8,0,1c0,6.6,0,13.3,0,19.9
	c0,4.7-1.6,8.7-5,11.9c-2.4,2.3-5.3,3.7-8.7,4.2c-5.3,0.8-9.9-0.9-13.7-4.7c-3.4-3.4-4.9-7.7-4.3-12.6c0.8-6.5,4.3-10.9,10.3-13.4
	c1.5-0.7,3.2-1.1,4.9-0.5c0.3,0.1,0.6,0.2,0.8,0.4c0.9,0.6,0.9,1.1,0.1,1.8c-0.1,0.1-0.3,0.2-0.4,0.4c-0.8,0.8-0.9,1.3-0.1,2.1
	c1.1,1.1,1,1.9-0.5,2.6c-0.9,0.4-1.8,0.6-2.7,1c-2.9,1.3-4.5,3.6-4.7,6.8c-0.2,2.9,0.9,5.2,3.2,7c4.3,3.3,10.1,1.4,12.4-2.7
	c0.8-1.3,1-2.8,1-4.2c0-5.8,0-11.7,0-17.6c0-2.3,0-4.6,0.1-6.8c0.2-0.1,0.3-0.1,0.5-0.2c2.1-0.7,3.2-2.6,3.2-4.5
	C37.3,11.6,35.8,10,33.8,9.5z"/>
<path class="st1" d="M29.1,2c2.5,0,4.9,0,7.2,0c0.2,0,0.4,0.3,0.5,0.5c0.4,1.3,0.8,2.8,1.2,4.1c-0.1,0.3-0.2,0.6-0.3,0.8
	c-1.1,2.2,0.4,5.3,2.7,5.9c1.3,0.4,2.6,0.1,3.8-0.4c1.4,0.7,2.9,1.2,4.5,1.3c0.6,0.1,0.9,0.2,0.9,1c0,2.5,0,4.9,0,7.4
	c0,0.6-0.3,0.7-0.8,0.7c-4.9,0.1-8.8-1.8-11.7-5.5c-0.1-0.1-0.2-0.3-0.5-0.6c0,0.5,0,0.8,0,1c0,6.6,0,13.3,0,19.9
	c0,4.7-1.6,8.7-5,11.9c-2.4,2.3-5.3,3.7-8.7,4.2C17.6,55,13,53.3,9.2,49.5c-3.4-3.4-4.9-7.7-4.3-12.6C5.7,30.4,9.2,26,15.2,23.5
	c1.5-0.7,3.2-1.1,4.9-0.5c0.3,0.1,0.6,0.2,0.8,0.4c0.9,0.6,0.9,1.1,0.1,1.8c-0.1,0.1-0.3,0.2-0.4,0.4c-0.8,0.8-0.9,1.3-0.1,2.1
	c1.1,1.1,1,1.9-0.5,2.6c-0.9,0.4-1.8,0.6-2.7,1c-2.9,1.3-4.5,3.6-4.7,6.8c-0.2,2.9,0.9,5.2,3.2,7c4.3,3.3,10.1,1.4,12.4-2.7
	c0.8-1.3,1-2.8,1-4.2c0-5.8,0-11.7,0-17.6C29.1,18,29.1,2.9,29.1,2z"/>
<path class="st2" d="M32,7.1c0-0.9,0-1.8,0-2.7c2.5,0,4.9,0,7.2,0c0.2,0,0.4,0.3,0.5,0.5c0.4,1.3,0.8,2.8,1.2,4.1
	c-0.1,0.3-0.2,0.6-0.3,0.8c-1.1,2.2,0.4,5.3,2.7,5.9c1.3,0.4,2.6,0.1,3.8-0.4c1.4,0.7,2.9,1.2,4.5,1.3c0.6,0.1,0.9,0.2,0.9,1
	c0,2.5,0,4.9,0,7.4c0,0.6-0.3,0.7-0.8,0.7c-4.9,0.1-8.8-1.8-11.7-5.5c-0.1-0.1-0.2-0.3-0.5-0.6c0,0.5,0,0.8,0,1c0,6.6,0,13.3,0,19.9
	c0,4.7-1.6,8.7-5,11.9c-2.4,2.3-5.3,3.7-8.7,4.2c-5.3,0.8-9.9-0.9-13.7-4.7c-3.4-3.4-4.9-7.7-4.3-12.6c0.8-6.5,4.3-10.9,10.3-13.4
	c1.5-0.7,3.2-1.1,4.9-0.5c0.3,0.1,0.6,0.2,0.8,0.4c0.9,0.6,0.9,1.1,0.1,1.8c-0.1,0.1-0.3,0.2-0.4,0.4c-0.8,0.8-0.9,1.3-0.1,2.1
	c1.1,1.1,1,1.9-0.5,2.6c-0.9,0.4-1.8,0.6-2.7,1c-2.9,1.3-4.5,3.6-4.7,6.8c-0.2,2.9,0.9,5.2,3.2,7c4.3,3.3,10.1,1.4,12.4-2.7
	c0.8-1.3,1-2.8,1-4.2c0-5.8,0-11.7,0-17.6c0-2.3,0-4.6,0.1-6.8c0.2-0.1,0.3-0.1,0.5-0.2c2.1-0.7,3.2-2.6,3.2-4.5
	C35.4,9.2,34,7.6,32,7.1z"/>
<circle class="st3" cx="30.5" cy="12.1" r="7.1"/>
<circle class="st4" cx="32.8" cy="12.1" r="3.1"/>
<circle class="st3" cx="45.2" cy="12.1" r="7.1"/>
<circle class="st4" cx="47.5" cy="12.1" r="3.1"/>
</svg>
