<?xml version="1.0" encoding="utf-8"?>
<!-- Generator: Adobe Illustrator 23.0.6, SVG Export Plug-In . SVG Version: 6.00 Build 0)  -->
<svg version="1.1"
	 id="svg3209" inkscape:version="0.48.2 r9819" sodipodi:docname="blinky.svg" xmlns:cc="http://creativecommons.org/ns#" xmlns:dc="http://purl.org/dc/elements/1.1/" xmlns:inkscape="http://www.inkscape.org/namespaces/inkscape" xmlns:rdf="http://www.w3.org/1999/02/22-rdf-syntax-ns#" xmlns:sodipodi="http://sodipodi.sourceforge.net/DTD/sodipodi-0.dtd" xmlns:svg="http://www.w3.org/2000/svg"
	 xmlns="http://www.w3.org/2000/svg" xmlns:xlink="http://www.w3.org/1999/xlink" x="0px" y="0px" viewBox="0 0 60 60"
	 style="enable-background:new 0 0 60 60;" xml:space="preserve">
<style type="text/css">
	.st0{fill:#3BFFF0;}
	.st1{fill:#3EDBFF;}
	.st2{fill:#40B6FF;}
</style>
<title  id="title3238">blinky</title>
<sodipodi:namedview  bordercolor="#666666" borderopacity="1.0" fit-margin-bottom="0" fit-margin-left="0" fit-margin-right="0" fit-margin-top="0" id="base" inkscape:current-layer="layer1" inkscape:cx="56.727193" inkscape:cy="-15.981831" inkscape:document-units="px" inkscape:pageopacity="0.0" inkscape:pageshadow="2" inkscape:window-height="838" inkscape:window-maximized="1" inkscape:window-width="1600" inkscape:window-x="-8" inkscape:window-y="-8" inkscape:zoom="2.990248" pagecolor="#ffffff" showgrid="false">
	</sodipodi:namedview>
<g>
	<path class="st0" d="M11.3,7.2C12,5.8,13,4.9,14.5,4.4c0.7-0.3,1.4-0.8,2.1-1.3c0.1,0,0.2,0,0.2,0c0.8,2.1,1.8,4.2,2.4,6.3
		c0.5,2,0.5,4.1,0.8,6.1c-2,1.7-1.6,1.5-2.8-0.2c-1.6-2.3-3.1-4.6-4.7-6.9C12.2,8,11.7,7.6,11.3,7.2z"/>
	<path class="st0" d="M56.8,43c-0.9,1.6-1.8,3.3-2.8,4.8c-0.2,0.3-0.7,0.5-1.1,0.7c-0.2-0.3-0.4-0.6-0.7-0.8c-1.5-1-3-2-4.5-3
		c-1.5-1-3-2-4.6-3.1c-0.6,0.6-1.1,1.1-1.5,1.6c-0.6,0.4-1.1,0.9-1.7,1.3c-2.2,1.3-4.6,2.4-7.2,2.8c-8,1.2-15.3-2.8-18.7-9.9
		c-0.1-0.1-0.1-0.3-0.1-0.5c0.5-0.6,1.1-1.2,1.7-1.7c4.3-3.7,9.6-4.9,15-5.4c4.3-0.4,8.3-1.4,11.9-3.9c1.2-0.9,2.3-1.8,3.5-2.7
		c2.2,5.2,1.8,10.3-0.8,15.2c-0.2,0.3-0.4,0.6-0.5,0.9c0,0.1-0.1,0.1-0.1,0.4C49,39.7,53,41.1,56.8,43z"/>
	<path class="st1" d="M46.1,23.4c-1.2,0.9-2.3,1.8-3.5,2.7c-3.5,2.6-7.6,3.5-11.9,3.9c-5.5,0.5-10.7,1.6-15,5.4
		c-0.6,0.5-1.1,1.1-1.7,1.7c-2-4.1-2-8.3-0.6-12.5c0.5-1.5,1.3-2.9,2-4.3c0.4-0.5,0.8-1,1.3-1.6c-0.5-0.3-0.8-0.6-1.2-0.8
		c-3-2-5.9-4-8.9-6c0.4-0.2,0.8-0.4,1.3-0.6c1.8-0.7,2.8-2.2,3.3-4c0.4,0.4,0.9,0.8,1.2,1.2c1.6,2.3,3.1,4.6,4.7,6.9
		c1.2,1.8,0.8,2,2.8,0.2c2.3-1.3,4.7-2.4,7.3-2.8C35,11.4,43.8,16.3,46.1,23.4z"/>
	<path class="st2" d="M6.7,11.8c3,2,5.9,4,8.9,6c0.4,0.2,0.7,0.5,1.2,0.8c-0.5,0.6-0.9,1.1-1.3,1.6c-3.9,0.2-7.6-0.9-11.1-2.5
		c-0.4-0.2-0.8-0.4-1.2-0.5C4.2,15.2,4.4,12.8,6.7,11.8z"/>
	<path class="st2" d="M40,44.5c0.6-0.4,1.1-0.9,1.7-1.3c2.3,3.3,4.5,6.6,6.8,9.9c-0.5,1.2-1.5,1.9-2.7,2.5c-0.8,0.4-1.6,0.8-2.4,1.3
		c-2.1-3.3-3.2-7-3.4-10.9C40,45.5,40,45,40,44.5z"/>
	<path class="st1" d="M48.5,53.1c-2.3-3.3-4.5-6.6-6.8-9.9c0.5-0.5,1-1,1.5-1.6c1.6,1.1,3.1,2.1,4.6,3.1c1.5,1,3,2,4.5,3
		c0.3,0.2,0.5,0.6,0.7,0.8C50.5,49.1,49.2,50.9,48.5,53.1z"/>
</g>
</svg>
