<?xml version="1.0" encoding="utf-8"?>
<!-- Generator: Adobe Illustrator 23.0.6, SVG Export Plug-In . SVG Version: 6.00 Build 0)  -->
<svg version="1.1"
	 id="svg3209" inkscape:version="0.48.2 r9819" sodipodi:docname="blinky.svg" xmlns:cc="http://creativecommons.org/ns#" xmlns:dc="http://purl.org/dc/elements/1.1/" xmlns:inkscape="http://www.inkscape.org/namespaces/inkscape" xmlns:rdf="http://www.w3.org/1999/02/22-rdf-syntax-ns#" xmlns:sodipodi="http://sodipodi.sourceforge.net/DTD/sodipodi-0.dtd" xmlns:svg="http://www.w3.org/2000/svg"
	 xmlns="http://www.w3.org/2000/svg" xmlns:xlink="http://www.w3.org/1999/xlink" x="0px" y="0px" viewBox="0 0 60 60"
	 style="enable-background:new 0 0 60 60;" xml:space="preserve">
<style type="text/css">
	.st0{fill:#0D0D0D;}
	.st1{fill:#FCF8F8;}
	.st2{fill:#F915FF;}
</style>
<title  id="title3238">blinky</title>
<sodipodi:namedview  bordercolor="#666666" borderopacity="1.0" fit-margin-bottom="0" fit-margin-left="0" fit-margin-right="0" fit-margin-top="0" id="base" inkscape:current-layer="layer1" inkscape:cx="56.727193" inkscape:cy="-15.981831" inkscape:document-units="px" inkscape:pageopacity="0.0" inkscape:pageshadow="2" inkscape:window-height="838" inkscape:window-maximized="1" inkscape:window-width="1600" inkscape:window-x="-8" inkscape:window-y="-8" inkscape:zoom="2.990248" pagecolor="#ffffff" showgrid="false">
	</sodipodi:namedview>
<path class="st0" d="M19.1,9c0-1.7,1.4-3.2,3.2-3.2c1.8,0,3.2,1.4,3.2,3.2s-1.4,3.2-3.2,3.2C20.4,12.2,19.1,10.8,19.1,9z"/>
<g>
	<circle class="st1" cx="20.2" cy="12.2" r="7.1"/>
	<circle class="st0" cx="22.6" cy="12.2" r="3.1"/>
</g>
<g>
	<circle class="st1" cx="39.8" cy="12.2" r="7.1"/>
	<circle class="st0" cx="42.1" cy="12.2" r="3.1"/>
</g>
<path class="st0" d="M19.7,9c0-1.7,1.4-3.2,3.2-3.2C24.7,5.8,26,7.2,26,9s-1.4,3.2-3.2,3.2C21.2,12.2,19.7,10.8,19.7,9z"/>
<g>
	<circle class="st1" cx="20.9" cy="12.2" r="7.1"/>
	<circle class="st2" cx="23.2" cy="12.2" r="3.1"/>
</g>
<g>
	<circle class="st1" cx="40.6" cy="12.2" r="7.1"/>
	<circle class="st2" cx="42.8" cy="12.2" r="3.1"/>
</g>
</svg>
