<?xml version="1.0" encoding="utf-8"?>
<!-- Generator: Adobe Illustrator 23.0.6, SVG Export Plug-In . SVG Version: 6.00 Build 0)  -->
<svg version="1.1"
	 id="svg3209" inkscape:version="0.48.2 r9819" sodipodi:docname="blinky.svg" xmlns:cc="http://creativecommons.org/ns#" xmlns:dc="http://purl.org/dc/elements/1.1/" xmlns:inkscape="http://www.inkscape.org/namespaces/inkscape" xmlns:rdf="http://www.w3.org/1999/02/22-rdf-syntax-ns#" xmlns:sodipodi="http://sodipodi.sourceforge.net/DTD/sodipodi-0.dtd" xmlns:svg="http://www.w3.org/2000/svg"
	 xmlns="http://www.w3.org/2000/svg" xmlns:xlink="http://www.w3.org/1999/xlink" x="0px" y="0px" viewBox="0 0 60 60"
	 style="enable-background:new 0 0 60 60;" xml:space="preserve">
<style type="text/css">
	.st0{fill:#0D0D0D;}
	.st1{fill:#3287A5;}
	.st2{fill:#FCF8F8;}
</style>
<title  id="title3238">blinky</title>
<sodipodi:namedview  bordercolor="#666666" borderopacity="1.0" fit-margin-bottom="0" fit-margin-left="0" fit-margin-right="0" fit-margin-top="0" id="base" inkscape:current-layer="layer1" inkscape:cx="56.727193" inkscape:cy="-15.981831" inkscape:document-units="px" inkscape:pageopacity="0.0" inkscape:pageshadow="2" inkscape:window-height="838" inkscape:window-maximized="1" inkscape:window-width="1600" inkscape:window-x="-8" inkscape:window-y="-8" inkscape:zoom="2.990248" pagecolor="#ffffff" showgrid="false">
	</sodipodi:namedview>
<path class="st0" d="M19.8,9c0-1.7,1.4-3.2,3.2-3.2c1.8,0,3.2,1.4,3.2,3.2s-1.4,3.2-3.2,3.2C21.2,12.2,19.7,10.8,19.8,9z"/>
<path class="st1" d="M30.2,4.9c1.4-0.5,2.9-0.5,4.3-0.5c0.1,0.3,0.1,0.6,0.2,1c0.2,2,2.1,3.8,4.2,3.7c0.7,0,1.3-0.2,2.1-0.3
	c0,1.4,0,3,0,4.5c-0.7,0-1.2,0-1.8,0c-1.3,0-2.7,0-4,0c-0.6,0-1.1,0.1-1.7,0.2c-1.2,0.2-2.1,1.2-2.2,2.5c-0.1,2.6-0.1,5.2-0.2,7.8
	c0,0.5,0.3,0.6,0.7,0.6c2.9,0,5.6,0,8.5,0c0.3,0,0.6,0,1,0c-0.1,3.1-0.3,6-0.4,9.2c-0.3,0-0.6,0-0.8,0c-2.7,0-5.3,0-8.1,0
	c-0.7,0-0.9,0.2-0.9,0.8c0,7,0,13.8,0,20.8c0,1.3-0.5,2.6-1.3,3.6c-0.6,0.7-1,0.7-1.5,0.1c-0.4-0.4-0.8-0.8-1.2-1.1
	c-0.8-0.7-1.3-0.7-2,0.2c-0.3,0.3-0.5,0.7-0.7,1c-0.5,0.7-1,0.7-1.5,0.1c-0.9-0.8-1.3-1.7-1.3-3c0-7.2,0-14.3,0-21.4c0-1,0-1-1-1
	c-1.9,0-3.8,0-5.8,0c0-3.1,0-6,0-9.2c0.6,0,1.1,0,1.7,0c1.4,0,2.8,0,4.2,0c0.7,0,0.8-0.2,0.8-0.9c0-2.8-0.1-5.4,0-8.2
	c0.1-2.2,0.8-4.3,2.1-6c0.1-0.2,0.2-0.3,0.4-0.5c0.8,0.1,1.6,0.3,2.4,0.3c1.2,0,2.3-0.6,2.9-1.5C29.7,6.8,29.9,5.8,30.2,4.9z"/>
<path class="st1" d="M22.3,11.3c0,0,3.1-8.9,18.6-6.9v9"/>
<g>
	<circle class="st2" cx="24.4" cy="12.1" r="7.1"/>
	<circle class="st0" cx="26.8" cy="12.1" r="3.1"/>
</g>
<g>
	<circle class="st2" cx="39.9" cy="12.1" r="7.1"/>
	<circle class="st0" cx="42.2" cy="12.1" r="3.1"/>
</g>
</svg>
