<?xml version="1.0" encoding="utf-8"?>
<!-- Generator: Adobe Illustrator 23.0.6, SVG Export Plug-In . SVG Version: 6.00 Build 0)  -->
<svg version="1.1"
	 id="svg3209" inkscape:version="0.48.2 r9819" sodipodi:docname="blinky.svg" xmlns:cc="http://creativecommons.org/ns#" xmlns:dc="http://purl.org/dc/elements/1.1/" xmlns:inkscape="http://www.inkscape.org/namespaces/inkscape" xmlns:rdf="http://www.w3.org/1999/02/22-rdf-syntax-ns#" xmlns:sodipodi="http://sodipodi.sourceforge.net/DTD/sodipodi-0.dtd" xmlns:svg="http://www.w3.org/2000/svg"
	 xmlns="http://www.w3.org/2000/svg" xmlns:xlink="http://www.w3.org/1999/xlink" x="0px" y="0px" viewBox="0 0 60 60"
	 style="enable-background:new 0 0 60 60;" xml:space="preserve">
<style type="text/css">
	.st0{fill:#0D0D0D;}
	.st1{fill:#FF0000;}
	.st2{fill:#AC6765;}
	.st3{fill:#FFFFFF;}
	.st4{fill:#FCF8F8;}
</style>
<title  id="title3238">blinky</title>
<sodipodi:namedview  bordercolor="#666666" borderopacity="1.0" fit-margin-bottom="0" fit-margin-left="0" fit-margin-right="0" fit-margin-top="0" id="base" inkscape:current-layer="layer1" inkscape:cx="56.727193" inkscape:cy="-15.981831" inkscape:document-units="px" inkscape:pageopacity="0.0" inkscape:pageshadow="2" inkscape:window-height="838" inkscape:window-maximized="1" inkscape:window-width="1600" inkscape:window-x="-8" inkscape:window-y="-8" inkscape:zoom="2.990248" pagecolor="#ffffff" showgrid="false">
	</sodipodi:namedview>
<path class="st0" d="M19.7,9c0-1.7,1.4-3.2,3.2-3.2C24.7,5.8,26,7.2,26,9s-1.4,3.2-3.2,3.2C21.2,12.2,19.7,10.8,19.7,9z"/>
<path class="st1" d="M54.7,50.7c-0.1,1.5-0.1,3.1-0.2,4.6c0,0.6-0.1,1.1-0.3,1.6c-0.5,1.3-1.9,1.7-3,0.8c-1.1-1.1-2.2-2.5-3.2-3.6
	c-0.5-0.5-1.1-1-1.7-1.3c-0.8-0.5-1.6-0.4-2.2,0.2c-1.1,1.1-1.9,2.2-3,3.2c-1,1.1-1.9,2-3.4,2c-0.8,0-1.4-0.3-1.9-0.9
	c-1.1-1.1-2-2.4-3.1-3.5c-1.6-1.8-3.9-2-5.4,0c-0.8,1-1.5,2-2.3,3c-1.2,1.7-3,1.9-4.5,0.4c-1-1-1.8-2.2-2.7-3.2
	c-0.4-0.5-0.8-0.9-1.2-1.2c-0.9-0.6-1.9-0.5-2.7,0.1c-1.2,1.1-2.3,2.2-3.5,3.2c-0.7,0.6-1.2,1.3-2,1.8c-0.7,0.5-1.8,0.3-2.4-1
	c-0.6-1.1-0.7-2.2-0.7-3.3c0-3.7,0-7.5,0-11.3c0-2-0.1-4-0.1-6c0-5.6,0-11.4,0-17c0-2.5,2-4.9,4.5-5.3c1.6-0.3,3.3-0.4,5-0.6
	c0.3,0.3,0.5,0.5,0.8,0.8c1.2,1.1,2.8,1.8,4.5,1.8c1.4,0,2.9-0.2,3.9-1.2c0.8-0.7,1.4-1.4,2.2-2.2c1.7,0,3.4,0,5.2,0
	c1.1,0,2.4,0,3.5,0.1c0.2,0.3,0.4,0.5,0.6,0.8c1.6,2.4,5.1,3.2,7.7,2.3c1.1-0.4,2-1.2,2.9-2c1.3,0.2,2.7,0.2,3.9,0.5
	c2.7,0.5,4.6,2.6,4.6,5.3c0,7.4,0,14.7,0,22.1c0,0.2,0,0.3,0,0.5C54.7,44.9,54.7,47.8,54.7,50.7z M23.2,30.3c0,3.2,0,6.5,0,9.7
	c0,0.6,0.1,1,0.6,1.2s1,0.2,1.4-0.1c1.3-0.9,2.8-1.7,4.1-2.7c2.5-1.6,5-3.2,7.4-4.8c1.2-0.9,2.6-1.6,3.8-2.5c1-0.7,0.9-1.6-0.1-2.2
	c-0.6-0.3-1.1-0.7-1.7-1.1c-2.8-1.8-5.5-3.6-8.3-5.4c-1.6-1.1-3.2-2.1-4.9-3.2c-0.5-0.3-1.1-0.7-1.6-0.4c-0.6,0.3-0.8,0.9-0.8,1.5
	C23.2,23.9,23.2,27.1,23.2,30.3z"/>
<path class="st2" d="M54.7,50.7c0-2.9,0-5.8,0-8.7c0,0.1,0.1,0.3,0.1,0.4c0,2.7,0,5.3,0,7.9C54.8,50.4,54.7,50.6,54.7,50.7z"/>
<path class="st3" d="M23.2,30.3c0-3.2,0-6.4,0-9.6c0-0.7,0.1-1.2,0.8-1.5c0.6-0.3,1.1,0.1,1.6,0.4c1.6,1.1,3.2,2.1,4.9,3.2
	c2.8,1.8,5.5,3.6,8.3,5.4c0.6,0.4,1.1,0.7,1.7,1.1c1,0.6,1.1,1.5,0.1,2.2c-1.2,0.9-2.5,1.6-3.8,2.5c-2.5,1.6-5,3.2-7.4,4.8
	c-1.3,0.9-2.8,1.7-4.1,2.7c-0.5,0.3-1,0.4-1.4,0.1s-0.6-0.8-0.6-1.2C23.2,36.8,23.2,33.5,23.2,30.3z"/>
<g>
	<circle class="st4" cx="20.9" cy="12.2" r="7.1"/>
	<circle class="st0" cx="23.2" cy="12.2" r="3.1"/>
</g>
<g>
	<circle class="st4" cx="40.6" cy="12.2" r="7.1"/>
	<circle class="st0" cx="42.8" cy="12.2" r="3.1"/>
</g>
</svg>
